<?xml version="1.0" encoding="UTF-8" standalone="no"?>
<!DOCTYPE svg PUBLIC "-//W3C//DTD SVG 1.1//EN"
 "http://www.w3.org/Graphics/SVG/1.1/DTD/svg11.dtd">
<!-- Generated by graphviz version 2.40.1 (20161225.0304)
 -->
<!-- Title: dependencies Pages: 1 -->
<svg width="899pt" height="284pt"
 viewBox="0.00 0.00 899.00 284.00" xmlns="http://www.w3.org/2000/svg" xmlns:xlink="http://www.w3.org/1999/xlink">
<g id="graph0" class="graph" transform="scale(1 1) rotate(0) translate(4 280)">
<title>dependencies</title>
<polygon fill="#ffffff" stroke="transparent" points="-4,4 -4,-280 895,-280 895,4 -4,4"/>
<text text-anchor="start" x="424.5091" y="-42.4" font-family="sans-serif" font-weight="bold" font-size="14.00" fill="#000000">Legend</text>
<polygon fill="#ffffb3" stroke="transparent" points="211.5,-10 211.5,-30 231.5,-30 231.5,-10 211.5,-10"/>
<text text-anchor="start" x="235.129" y="-15.4" font-family="sans-serif" font-size="14.00" fill="#000000"> &#160;Declarations</text>
<polygon fill="#8dd3c7" stroke="transparent" points="324.5,-10 324.5,-30 344.5,-30 344.5,-10 324.5,-10"/>
<text text-anchor="start" x="348.2251" y="-15.4" font-family="sans-serif" font-size="14.00" fill="#000000"> &#160;Module</text>
<polygon fill="#80b1d3" stroke="transparent" points="410.5,-10 410.5,-30 430.5,-30 430.5,-10 410.5,-10"/>
<text text-anchor="start" x="434.2812" y="-15.4" font-family="sans-serif" font-size="14.00" fill="#000000"> &#160;Bootstrap</text>
<polygon fill="#fdb462" stroke="transparent" points="507.5,-10 507.5,-30 527.5,-30 527.5,-10 507.5,-10"/>
<text text-anchor="start" x="531.1732" y="-15.4" font-family="sans-serif" font-size="14.00" fill="#000000"> &#160;Providers</text>
<polygon fill="#fb8072" stroke="transparent" points="603.5,-10 603.5,-30 623.5,-30 623.5,-10 603.5,-10"/>
<text text-anchor="start" x="627.2258" y="-15.4" font-family="sans-serif" font-size="14.00" fill="#000000"> &#160;Exports</text>
<g id="clust1" class="cluster">
<title>cluster_AuthModule</title>
<polygon fill="none" stroke="#000000" stroke-dasharray="1,5" points="8,-70 8,-268 883,-268 883,-70 8,-70"/>
</g>
<g id="clust2" class="cluster">
<title>cluster_AuthModule_declarations</title>
<polygon fill="none" stroke="#000000" points="172,-78 172,-130 875,-130 875,-78 172,-78"/>
</g>
<g id="clust8" class="cluster">
<title>cluster_AuthModule_imports</title>
<polygon fill="none" stroke="#000000" points="16,-78 16,-130 164,-130 164,-78 16,-78"/>
</g>
<g id="clust9" class="cluster">
<title>cluster_AuthModule_exports</title>
<polygon fill="none" stroke="#000000" points="368,-208 368,-260 520,-260 520,-208 368,-208"/>
</g>
<!-- WelcomeComponent -->
<g id="node1" class="node">
<title>WelcomeComponent</title>
<polygon fill="#ffffb3" stroke="#000000" points="867.472,-122 732.528,-122 732.528,-86 867.472,-86 867.472,-122"/>
<text text-anchor="middle" x="800" y="-99.8" font-family="Times,serif" font-size="14.00" fill="#000000">WelcomeComponent</text>
</g>
<!-- AuthModule -->
<g id="node6" class="node">
<title>AuthModule</title>
<polygon fill="#8dd3c7" stroke="#000000" points="487.5482,-187 484.5482,-191 463.5482,-191 460.5482,-187 400.4518,-187 400.4518,-151 487.5482,-151 487.5482,-187"/>
<text text-anchor="middle" x="444" y="-164.8" font-family="Times,serif" font-size="14.00" fill="#000000">AuthModule</text>
</g>
<!-- WelcomeComponent&#45;&gt;AuthModule -->
<g id="edge1" class="edge">
<title>WelcomeComponent&#45;&gt;AuthModule</title>
<path fill="none" stroke="#000000" d="M800,-122.2843C800,-143.3211 800,-175 800,-175 800,-175 497.6526,-175 497.6526,-175"/>
<polygon fill="#000000" stroke="#000000" points="497.6526,-171.5001 487.6526,-175 497.6526,-178.5001 497.6526,-171.5001"/>
</g>
<!-- SignUpComponent -->
<g id="node2" class="node">
<title>SignUpComponent</title>
<polygon fill="#ffffb3" stroke="#000000" points="714.1123,-122 589.8877,-122 589.8877,-86 714.1123,-86 714.1123,-122"/>
<text text-anchor="middle" x="652" y="-99.8" font-family="Times,serif" font-size="14.00" fill="#000000">SignUpComponent</text>
</g>
<!-- SignUpComponent&#45;&gt;AuthModule -->
<g id="edge2" class="edge">
<title>SignUpComponent&#45;&gt;AuthModule</title>
<path fill="none" stroke="#000000" d="M652,-122.0225C652,-139.3734 652,-163 652,-163 652,-163 497.6036,-163 497.6036,-163"/>
<polygon fill="#000000" stroke="#000000" points="497.6037,-159.5001 487.6036,-163 497.6036,-166.5001 497.6037,-159.5001"/>
</g>
<!-- SignInComponent -->
<g id="node3" class="node">
<title>SignInComponent</title>
<polygon fill="#ffffb3" stroke="#000000" points="572.1667,-122 453.8333,-122 453.8333,-86 572.1667,-86 572.1667,-122"/>
<text text-anchor="middle" x="513" y="-99.8" font-family="Times,serif" font-size="14.00" fill="#000000">SignInComponent</text>
</g>
<!-- SignInComponent&#45;&gt;AuthModule -->
<g id="edge3" class="edge">
<title>SignInComponent&#45;&gt;AuthModule</title>
<path fill="none" stroke="#000000" d="M470.7202,-122.1061C470.7202,-122.1061 470.7202,-140.991 470.7202,-140.991"/>
<polygon fill="#000000" stroke="#000000" points="467.2203,-140.9909 470.7202,-150.991 474.2203,-140.991 467.2203,-140.9909"/>
</g>
<!-- ProjectComponent -->
<g id="node4" class="node">
<title>ProjectComponent</title>
<polygon fill="#ffffb3" stroke="#000000" points="435.486,-122 314.514,-122 314.514,-86 435.486,-86 435.486,-122"/>
<text text-anchor="middle" x="375" y="-99.8" font-family="Times,serif" font-size="14.00" fill="#000000">ProjectComponent</text>
</g>
<!-- ProjectComponent&#45;&gt;AuthModule -->
<g id="edge4" class="edge">
<title>ProjectComponent&#45;&gt;AuthModule</title>
<path fill="none" stroke="#000000" d="M417.8597,-122.1061C417.8597,-122.1061 417.8597,-140.991 417.8597,-140.991"/>
<polygon fill="#000000" stroke="#000000" points="414.3598,-140.9909 417.8597,-150.991 421.3598,-140.991 414.3598,-140.9909"/>
</g>
<!-- AboutComponent -->
<g id="node5" class="node">
<title>AboutComponent</title>
<polygon fill="#ffffb3" stroke="#000000" points="296.3301,-122 179.6699,-122 179.6699,-86 296.3301,-86 296.3301,-122"/>
<text text-anchor="middle" x="238" y="-99.8" font-family="Times,serif" font-size="14.00" fill="#000000">AboutComponent</text>
</g>
<!-- AboutComponent&#45;&gt;AuthModule -->
<g id="edge5" class="edge">
<title>AboutComponent&#45;&gt;AuthModule</title>
<path fill="none" stroke="#000000" d="M238,-122.0225C238,-139.3734 238,-163 238,-163 238,-163 390.3127,-163 390.3127,-163"/>
<polygon fill="#000000" stroke="#000000" points="390.3127,-166.5001 400.3127,-163 390.3127,-159.5001 390.3127,-166.5001"/>
</g>
<!-- AuthRoutingModule  -->
<g id="node8" class="node">
<title>AuthRoutingModule </title>
<polygon fill="#fb8072" stroke="#000000" points="512.1649,-252 375.8351,-252 375.8351,-216 512.1649,-216 512.1649,-252"/>
<text text-anchor="middle" x="444" y="-229.8" font-family="Times,serif" font-size="14.00" fill="#000000">AuthRoutingModule </text>
</g>
<!-- AuthModule&#45;&gt;AuthRoutingModule  -->
<g id="edge7" class="edge">
<title>AuthModule&#45;&gt;AuthRoutingModule </title>
<path fill="none" stroke="#000000" stroke-dasharray="5,2" d="M444,-187.1061C444,-187.1061 444,-205.991 444,-205.991"/>
<polygon fill="#000000" stroke="#000000" points="440.5001,-205.9909 444,-215.991 447.5001,-205.991 440.5001,-205.9909"/>
</g>
<!-- AuthRoutingModule -->
<g id="node7" class="node">
<title>AuthRoutingModule</title>
<polygon fill="#8dd3c7" stroke="#000000" points="156.1652,-122 153.1652,-126 132.1652,-126 129.1652,-122 23.8348,-122 23.8348,-86 156.1652,-86 156.1652,-122"/>
<text text-anchor="middle" x="90" y="-99.8" font-family="Times,serif" font-size="14.00" fill="#000000">AuthRoutingModule</text>
</g>
<!-- AuthRoutingModule&#45;&gt;AuthModule -->
<g id="edge6" class="edge">
<title>AuthRoutingModule&#45;&gt;AuthModule</title>
<path fill="none" stroke="#000000" d="M90,-122.2843C90,-143.3211 90,-175 90,-175 90,-175 390.2376,-175 390.2376,-175"/>
<polygon fill="#000000" stroke="#000000" points="390.2376,-178.5001 400.2376,-175 390.2376,-171.5001 390.2376,-178.5001"/>
</g>
</g>
</svg>
