<?xml version="1.0" encoding="UTF-8" standalone="no"?>
<!DOCTYPE svg PUBLIC "-//W3C//DTD SVG 1.1//EN"
 "http://www.w3.org/Graphics/SVG/1.1/DTD/svg11.dtd">
<!-- Generated by graphviz version 2.40.1 (20161225.0304)
 -->
<!-- Title: dependencies Pages: 1 -->
<svg width="964pt" height="284pt"
 viewBox="0.00 0.00 964.00 284.00" xmlns="http://www.w3.org/2000/svg" xmlns:xlink="http://www.w3.org/1999/xlink">
<g id="graph0" class="graph" transform="scale(1 1) rotate(0) translate(4 280)">
<title>dependencies</title>
<polygon fill="#ffffff" stroke="transparent" points="-4,4 -4,-280 960,-280 960,4 -4,4"/>
<text text-anchor="start" x="457.0091" y="-42.4" font-family="sans-serif" font-weight="bold" font-size="14.00" fill="#000000">Legend</text>
<polygon fill="#ffffb3" stroke="transparent" points="244,-10 244,-30 264,-30 264,-10 244,-10"/>
<text text-anchor="start" x="267.629" y="-15.4" font-family="sans-serif" font-size="14.00" fill="#000000"> &#160;Declarations</text>
<polygon fill="#8dd3c7" stroke="transparent" points="357,-10 357,-30 377,-30 377,-10 357,-10"/>
<text text-anchor="start" x="380.7251" y="-15.4" font-family="sans-serif" font-size="14.00" fill="#000000"> &#160;Module</text>
<polygon fill="#80b1d3" stroke="transparent" points="443,-10 443,-30 463,-30 463,-10 443,-10"/>
<text text-anchor="start" x="466.7812" y="-15.4" font-family="sans-serif" font-size="14.00" fill="#000000"> &#160;Bootstrap</text>
<polygon fill="#fdb462" stroke="transparent" points="540,-10 540,-30 560,-30 560,-10 540,-10"/>
<text text-anchor="start" x="563.6732" y="-15.4" font-family="sans-serif" font-size="14.00" fill="#000000"> &#160;Providers</text>
<polygon fill="#fb8072" stroke="transparent" points="636,-10 636,-30 656,-30 656,-10 636,-10"/>
<text text-anchor="start" x="659.7258" y="-15.4" font-family="sans-serif" font-size="14.00" fill="#000000"> &#160;Exports</text>
<g id="clust1" class="cluster">
<title>cluster_AppModule</title>
<polygon fill="none" stroke="#000000" stroke-dasharray="1,5" points="8,-70 8,-268 948,-268 948,-70 8,-70"/>
</g>
<g id="clust2" class="cluster">
<title>cluster_AppModule_declarations</title>
<polygon fill="none" stroke="#000000" points="818,-78 818,-130 940,-130 940,-78 818,-78"/>
</g>
<g id="clust4" class="cluster">
<title>cluster_AppModule_imports</title>
<polygon fill="none" stroke="#000000" points="343,-78 343,-130 810,-130 810,-78 343,-78"/>
</g>
<g id="clust6" class="cluster">
<title>cluster_AppModule_bootstrap</title>
<polygon fill="none" stroke="#000000" points="441,-208 441,-260 565,-260 565,-208 441,-208"/>
</g>
<g id="clust7" class="cluster">
<title>cluster_AppModule_providers</title>
<polygon fill="none" stroke="#000000" points="16,-78 16,-130 335,-130 335,-78 16,-78"/>
</g>
<!-- AppComponent -->
<g id="node1" class="node">
<title>AppComponent</title>
<polygon fill="#ffffb3" stroke="#000000" points="931.9399,-122 826.0601,-122 826.0601,-86 931.9399,-86 931.9399,-122"/>
<text text-anchor="middle" x="879" y="-99.8" font-family="Times,serif" font-size="14.00" fill="#000000">AppComponent</text>
</g>
<!-- AppModule -->
<g id="node2" class="node">
<title>AppModule</title>
<polygon fill="#8dd3c7" stroke="#000000" points="544.6571,-187 541.6571,-191 520.6571,-191 517.6571,-187 461.3429,-187 461.3429,-151 544.6571,-151 544.6571,-187"/>
<text text-anchor="middle" x="503" y="-164.8" font-family="Times,serif" font-size="14.00" fill="#000000">AppModule</text>
</g>
<!-- AppComponent&#45;&gt;AppModule -->
<g id="edge1" class="edge">
<title>AppComponent&#45;&gt;AppModule</title>
<path fill="none" stroke="#000000" d="M879,-122.2921C879,-144.2057 879,-178 879,-178 879,-178 554.6752,-178 554.6752,-178"/>
<polygon fill="#000000" stroke="#000000" points="554.6752,-174.5001 544.6752,-178 554.6752,-181.5001 554.6752,-174.5001"/>
</g>
<!-- AppComponent  -->
<g id="node7" class="node">
<title>AppComponent </title>
<polygon fill="#80b1d3" stroke="#000000" points="557.439,-252 448.561,-252 448.561,-216 557.439,-216 557.439,-252"/>
<text text-anchor="middle" x="503" y="-229.8" font-family="Times,serif" font-size="14.00" fill="#000000">AppComponent </text>
</g>
<!-- AppModule&#45;&gt;AppComponent  -->
<g id="edge6" class="edge">
<title>AppModule&#45;&gt;AppComponent </title>
<path fill="none" stroke="#000000" stroke-dasharray="1,5" d="M503,-187.1061C503,-187.1061 503,-205.991 503,-205.991"/>
<polygon fill="#000000" stroke="#000000" points="499.5001,-205.9909 503,-215.991 506.5001,-205.991 499.5001,-205.9909"/>
</g>
<!-- AppRoutingModule -->
<g id="node3" class="node">
<title>AppRoutingModule</title>
<polygon fill="#8dd3c7" stroke="#000000" points="802.2744,-122 799.2744,-126 778.2744,-126 775.2744,-122 673.7256,-122 673.7256,-86 802.2744,-86 802.2744,-122"/>
<text text-anchor="middle" x="738" y="-99.8" font-family="Times,serif" font-size="14.00" fill="#000000">AppRoutingModule</text>
</g>
<!-- AppRoutingModule&#45;&gt;AppModule -->
<g id="edge2" class="edge">
<title>AppRoutingModule&#45;&gt;AppModule</title>
<path fill="none" stroke="#000000" d="M738,-122.1061C738,-141.3391 738,-169 738,-169 738,-169 554.7425,-169 554.7425,-169"/>
<polygon fill="#000000" stroke="#000000" points="554.7425,-165.5001 544.7425,-169 554.7425,-172.5001 554.7425,-165.5001"/>
</g>
<!-- AuthModule -->
<g id="node4" class="node">
<title>AuthModule</title>
<polygon fill="#8dd3c7" stroke="#000000" points="655.5482,-122 652.5482,-126 631.5482,-126 628.5482,-122 568.4518,-122 568.4518,-86 655.5482,-86 655.5482,-122"/>
<text text-anchor="middle" x="612" y="-99.8" font-family="Times,serif" font-size="14.00" fill="#000000">AuthModule</text>
</g>
<!-- AuthModule&#45;&gt;AppModule -->
<g id="edge3" class="edge">
<title>AuthModule&#45;&gt;AppModule</title>
<path fill="none" stroke="#000000" d="M612,-122.027C612,-138.3976 612,-160 612,-160 612,-160 554.8305,-160 554.8305,-160"/>
<polygon fill="#000000" stroke="#000000" points="554.8305,-156.5001 544.8305,-160 554.8305,-163.5001 554.8305,-156.5001"/>
</g>
<!-- TweetModule -->
<g id="node5" class="node">
<title>TweetModule</title>
<polygon fill="#8dd3c7" stroke="#000000" points="550.03,-122 547.03,-126 526.03,-126 523.03,-122 455.97,-122 455.97,-86 550.03,-86 550.03,-122"/>
<text text-anchor="middle" x="503" y="-99.8" font-family="Times,serif" font-size="14.00" fill="#000000">TweetModule</text>
</g>
<!-- TweetModule&#45;&gt;AppModule -->
<g id="edge4" class="edge">
<title>TweetModule&#45;&gt;AppModule</title>
<path fill="none" stroke="#000000" d="M503,-122.1061C503,-122.1061 503,-140.991 503,-140.991"/>
<polygon fill="#000000" stroke="#000000" points="499.5001,-140.9909 503,-150.991 506.5001,-140.991 499.5001,-140.9909"/>
</g>
<!-- CoreModule -->
<g id="node6" class="node">
<title>CoreModule</title>
<polygon fill="#8dd3c7" stroke="#000000" points="437.2619,-122 434.2619,-126 413.2619,-126 410.2619,-122 350.7381,-122 350.7381,-86 437.2619,-86 437.2619,-122"/>
<text text-anchor="middle" x="394" y="-99.8" font-family="Times,serif" font-size="14.00" fill="#000000">CoreModule</text>
</g>
<!-- CoreModule&#45;&gt;AppModule -->
<g id="edge5" class="edge">
<title>CoreModule&#45;&gt;AppModule</title>
<path fill="none" stroke="#000000" d="M394,-122.027C394,-138.3976 394,-160 394,-160 394,-160 451.1695,-160 451.1695,-160"/>
<polygon fill="#000000" stroke="#000000" points="451.1695,-163.5001 461.1695,-160 451.1695,-156.5001 451.1695,-163.5001"/>
</g>
<!-- AuthService -->
<g id="node8" class="node">
<title>AuthService</title>
<ellipse fill="#fdb462" stroke="#000000" cx="268" cy="-104" rx="59.1083" ry="18"/>
<text text-anchor="middle" x="268" y="-99.8" font-family="Times,serif" font-size="14.00" fill="#000000">AuthService</text>
</g>
<!-- AuthService&#45;&gt;AppModule -->
<g id="edge7" class="edge">
<title>AuthService&#45;&gt;AppModule</title>
<path fill="none" stroke="#000000" d="M268,-122.1061C268,-141.3391 268,-169 268,-169 268,-169 451.2575,-169 451.2575,-169"/>
<polygon fill="#000000" stroke="#000000" points="451.2575,-172.5001 461.2575,-169 451.2575,-165.5001 451.2575,-172.5001"/>
</g>
<!-- AuthGuardService -->
<g id="node9" class="node">
<title>AuthGuardService</title>
<ellipse fill="#fdb462" stroke="#000000" cx="107" cy="-104" rx="83.3674" ry="18"/>
<text text-anchor="middle" x="107" y="-99.8" font-family="Times,serif" font-size="14.00" fill="#000000">AuthGuardService</text>
</g>
<!-- AuthGuardService&#45;&gt;AppModule -->
<g id="edge8" class="edge">
<title>AuthGuardService&#45;&gt;AppModule</title>
<path fill="none" stroke="#000000" d="M107,-122.2921C107,-144.2057 107,-178 107,-178 107,-178 450.996,-178 450.996,-178"/>
<polygon fill="#000000" stroke="#000000" points="450.996,-181.5001 460.996,-178 450.9959,-174.5001 450.996,-181.5001"/>
</g>
</g>
</svg>
