<?xml version="1.0" encoding="UTF-8" standalone="no"?>
<!DOCTYPE svg PUBLIC "-//W3C//DTD SVG 1.1//EN"
 "http://www.w3.org/Graphics/SVG/1.1/DTD/svg11.dtd">
<!-- Generated by graphviz version 2.40.1 (20161225.0304)
 -->
<!-- Title: dependencies Pages: 1 -->
<svg width="968pt" height="284pt"
 viewBox="0.00 0.00 968.00 284.00" xmlns="http://www.w3.org/2000/svg" xmlns:xlink="http://www.w3.org/1999/xlink">
<g id="graph0" class="graph" transform="scale(1 1) rotate(0) translate(4 280)">
<title>dependencies</title>
<polygon fill="#ffffff" stroke="transparent" points="-4,4 -4,-280 964,-280 964,4 -4,4"/>
<text text-anchor="start" x="459.0091" y="-42.4" font-family="sans-serif" font-weight="bold" font-size="14.00" fill="#000000">Legend</text>
<polygon fill="#ffffb3" stroke="transparent" points="246,-10 246,-30 266,-30 266,-10 246,-10"/>
<text text-anchor="start" x="269.629" y="-15.4" font-family="sans-serif" font-size="14.00" fill="#000000"> &#160;Declarations</text>
<polygon fill="#8dd3c7" stroke="transparent" points="359,-10 359,-30 379,-30 379,-10 359,-10"/>
<text text-anchor="start" x="382.7251" y="-15.4" font-family="sans-serif" font-size="14.00" fill="#000000"> &#160;Module</text>
<polygon fill="#80b1d3" stroke="transparent" points="445,-10 445,-30 465,-30 465,-10 445,-10"/>
<text text-anchor="start" x="468.7812" y="-15.4" font-family="sans-serif" font-size="14.00" fill="#000000"> &#160;Bootstrap</text>
<polygon fill="#fdb462" stroke="transparent" points="542,-10 542,-30 562,-30 562,-10 542,-10"/>
<text text-anchor="start" x="565.6732" y="-15.4" font-family="sans-serif" font-size="14.00" fill="#000000"> &#160;Providers</text>
<polygon fill="#fb8072" stroke="transparent" points="638,-10 638,-30 658,-30 658,-10 638,-10"/>
<text text-anchor="start" x="661.7258" y="-15.4" font-family="sans-serif" font-size="14.00" fill="#000000"> &#160;Exports</text>
<g id="clust1" class="cluster">
<title>cluster_TweetModule</title>
<polygon fill="none" stroke="#000000" stroke-dasharray="1,5" points="8,-70 8,-268 952,-268 952,-70 8,-70"/>
</g>
<g id="clust2" class="cluster">
<title>cluster_TweetModule_declarations</title>
<polygon fill="none" stroke="#000000" points="332,-78 332,-130 944,-130 944,-78 332,-78"/>
</g>
<g id="clust7" class="cluster">
<title>cluster_TweetModule_imports</title>
<polygon fill="none" stroke="#000000" points="168,-78 168,-130 324,-130 324,-78 168,-78"/>
</g>
<g id="clust8" class="cluster">
<title>cluster_TweetModule_exports</title>
<polygon fill="none" stroke="#000000" points="396,-208 396,-260 556,-260 556,-208 396,-208"/>
</g>
<g id="clust10" class="cluster">
<title>cluster_TweetModule_providers</title>
<polygon fill="none" stroke="#000000" points="16,-78 16,-130 160,-130 160,-78 16,-78"/>
</g>
<!-- TweetEditComponent -->
<g id="node1" class="node">
<title>TweetEditComponent</title>
<polygon fill="#ffffb3" stroke="#000000" points="935.6456,-122 796.3544,-122 796.3544,-86 935.6456,-86 935.6456,-122"/>
<text text-anchor="middle" x="866" y="-99.8" font-family="Times,serif" font-size="14.00" fill="#000000">TweetEditComponent</text>
</g>
<!-- TweetModule -->
<g id="node5" class="node">
<title>TweetModule</title>
<polygon fill="#8dd3c7" stroke="#000000" points="523.03,-187 520.03,-191 499.03,-191 496.03,-187 428.97,-187 428.97,-151 523.03,-151 523.03,-187"/>
<text text-anchor="middle" x="476" y="-164.8" font-family="Times,serif" font-size="14.00" fill="#000000">TweetModule</text>
</g>
<!-- TweetEditComponent&#45;&gt;TweetModule -->
<g id="edge1" class="edge">
<title>TweetEditComponent&#45;&gt;TweetModule</title>
<path fill="none" stroke="#000000" d="M866,-122.2843C866,-143.3211 866,-175 866,-175 866,-175 533.0431,-175 533.0431,-175"/>
<polygon fill="#000000" stroke="#000000" points="533.0431,-171.5001 523.0431,-175 533.0431,-178.5001 533.0431,-171.5001"/>
</g>
<!-- TweetListComponent -->
<g id="node2" class="node">
<title>TweetListComponent</title>
<polygon fill="#ffffb3" stroke="#000000" points="778.0898,-122 639.9102,-122 639.9102,-86 778.0898,-86 778.0898,-122"/>
<text text-anchor="middle" x="709" y="-99.8" font-family="Times,serif" font-size="14.00" fill="#000000">TweetListComponent</text>
</g>
<!-- TweetListComponent&#45;&gt;TweetModule -->
<g id="edge2" class="edge">
<title>TweetListComponent&#45;&gt;TweetModule</title>
<path fill="none" stroke="#000000" d="M709,-122.0225C709,-139.3734 709,-163 709,-163 709,-163 533.151,-163 533.151,-163"/>
<polygon fill="#000000" stroke="#000000" points="533.1511,-159.5001 523.151,-163 533.151,-166.5001 533.1511,-159.5001"/>
</g>
<!-- TweetItemComponent -->
<g id="node3" class="node">
<title>TweetItemComponent</title>
<polygon fill="#ffffb3" stroke="#000000" points="621.9678,-122 480.0322,-122 480.0322,-86 621.9678,-86 621.9678,-122"/>
<text text-anchor="middle" x="551" y="-99.8" font-family="Times,serif" font-size="14.00" fill="#000000">TweetItemComponent</text>
</g>
<!-- TweetItemComponent&#45;&gt;TweetModule -->
<g id="edge3" class="edge">
<title>TweetItemComponent&#45;&gt;TweetModule</title>
<path fill="none" stroke="#000000" d="M501.6403,-122.1061C501.6403,-122.1061 501.6403,-140.991 501.6403,-140.991"/>
<polygon fill="#000000" stroke="#000000" points="498.1403,-140.9909 501.6403,-150.991 505.1403,-140.991 498.1403,-140.9909"/>
</g>
<!-- TweetsComponent -->
<g id="node4" class="node">
<title>TweetsComponent</title>
<polygon fill="#ffffb3" stroke="#000000" points="461.7562,-122 340.2438,-122 340.2438,-86 461.7562,-86 461.7562,-122"/>
<text text-anchor="middle" x="401" y="-99.8" font-family="Times,serif" font-size="14.00" fill="#000000">TweetsComponent</text>
</g>
<!-- TweetsComponent&#45;&gt;TweetModule -->
<g id="edge4" class="edge">
<title>TweetsComponent&#45;&gt;TweetModule</title>
<path fill="none" stroke="#000000" d="M445.3068,-122.1061C445.3068,-122.1061 445.3068,-140.991 445.3068,-140.991"/>
<polygon fill="#000000" stroke="#000000" points="441.8069,-140.9909 445.3068,-150.991 448.8069,-140.991 441.8069,-140.9909"/>
</g>
<!-- TweetRoutingModule  -->
<g id="node7" class="node">
<title>TweetRoutingModule </title>
<polygon fill="#fb8072" stroke="#000000" points="547.6467,-252 404.3533,-252 404.3533,-216 547.6467,-216 547.6467,-252"/>
<text text-anchor="middle" x="476" y="-229.8" font-family="Times,serif" font-size="14.00" fill="#000000">TweetRoutingModule </text>
</g>
<!-- TweetModule&#45;&gt;TweetRoutingModule  -->
<g id="edge6" class="edge">
<title>TweetModule&#45;&gt;TweetRoutingModule </title>
<path fill="none" stroke="#000000" stroke-dasharray="5,2" d="M476,-187.1061C476,-187.1061 476,-205.991 476,-205.991"/>
<polygon fill="#000000" stroke="#000000" points="472.5001,-205.9909 476,-215.991 479.5001,-205.991 472.5001,-205.9909"/>
</g>
<!-- TweetRoutingModule -->
<g id="node6" class="node">
<title>TweetRoutingModule</title>
<polygon fill="#8dd3c7" stroke="#000000" points="315.647,-122 312.647,-126 291.647,-126 288.647,-122 176.353,-122 176.353,-86 315.647,-86 315.647,-122"/>
<text text-anchor="middle" x="246" y="-99.8" font-family="Times,serif" font-size="14.00" fill="#000000">TweetRoutingModule</text>
</g>
<!-- TweetRoutingModule&#45;&gt;TweetModule -->
<g id="edge5" class="edge">
<title>TweetRoutingModule&#45;&gt;TweetModule</title>
<path fill="none" stroke="#000000" d="M246,-122.0225C246,-139.3734 246,-163 246,-163 246,-163 418.9011,-163 418.9011,-163"/>
<polygon fill="#000000" stroke="#000000" points="418.9011,-166.5001 428.9011,-163 418.901,-159.5001 418.9011,-166.5001"/>
</g>
<!-- TweetService -->
<g id="node8" class="node">
<title>TweetService</title>
<ellipse fill="#fdb462" stroke="#000000" cx="88" cy="-104" rx="64.2398" ry="18"/>
<text text-anchor="middle" x="88" y="-99.8" font-family="Times,serif" font-size="14.00" fill="#000000">TweetService</text>
</g>
<!-- TweetService&#45;&gt;TweetModule -->
<g id="edge7" class="edge">
<title>TweetService&#45;&gt;TweetModule</title>
<path fill="none" stroke="#000000" d="M88,-122.2843C88,-143.3211 88,-175 88,-175 88,-175 418.8115,-175 418.8115,-175"/>
<polygon fill="#000000" stroke="#000000" points="418.8115,-178.5001 428.8115,-175 418.8115,-171.5001 418.8115,-178.5001"/>
</g>
</g>
</svg>
