<?xml version="1.0" encoding="UTF-8" standalone="no"?>
<!DOCTYPE svg PUBLIC "-//W3C//DTD SVG 1.1//EN"
 "http://www.w3.org/Graphics/SVG/1.1/DTD/svg11.dtd">
<!-- Generated by graphviz version 2.40.1 (20161225.0304)
 -->
<!-- Title: dependencies Pages: 1 -->
<svg width="2179pt" height="366pt"
 viewBox="0.00 0.00 2179.00 366.00" xmlns="http://www.w3.org/2000/svg" xmlns:xlink="http://www.w3.org/1999/xlink">
<g id="graph0" class="graph" transform="scale(1 1) rotate(0) translate(4 362)">
<title>dependencies</title>
<polygon fill="#ffffff" stroke="transparent" points="-4,4 -4,-362 2175,-362 2175,4 -4,4"/>
<text text-anchor="start" x="1064.5091" y="-42.4" font-family="sans-serif" font-weight="bold" font-size="14.00" fill="#000000">Legend</text>
<polygon fill="#ffffb3" stroke="transparent" points="851.5,-10 851.5,-30 871.5,-30 871.5,-10 851.5,-10"/>
<text text-anchor="start" x="875.129" y="-15.4" font-family="sans-serif" font-size="14.00" fill="#000000"> &#160;Declarations</text>
<polygon fill="#8dd3c7" stroke="transparent" points="964.5,-10 964.5,-30 984.5,-30 984.5,-10 964.5,-10"/>
<text text-anchor="start" x="988.2251" y="-15.4" font-family="sans-serif" font-size="14.00" fill="#000000"> &#160;Module</text>
<polygon fill="#80b1d3" stroke="transparent" points="1050.5,-10 1050.5,-30 1070.5,-30 1070.5,-10 1050.5,-10"/>
<text text-anchor="start" x="1074.2812" y="-15.4" font-family="sans-serif" font-size="14.00" fill="#000000"> &#160;Bootstrap</text>
<polygon fill="#fdb462" stroke="transparent" points="1147.5,-10 1147.5,-30 1167.5,-30 1167.5,-10 1147.5,-10"/>
<text text-anchor="start" x="1171.1732" y="-15.4" font-family="sans-serif" font-size="14.00" fill="#000000"> &#160;Providers</text>
<polygon fill="#fb8072" stroke="transparent" points="1243.5,-10 1243.5,-30 1263.5,-30 1263.5,-10 1243.5,-10"/>
<text text-anchor="start" x="1267.2258" y="-15.4" font-family="sans-serif" font-size="14.00" fill="#000000"> &#160;Exports</text>
<g id="clust1" class="cluster">
<title>cluster_AppModule</title>
<polygon fill="none" stroke="#000000" stroke-dasharray="1,5" points="474,-146 474,-350 1415,-350 1415,-146 474,-146"/>
</g>
<g id="clust2" class="cluster">
<title>cluster_AppModule_declarations</title>
<polygon fill="none" stroke="#000000" points="809,-154 809,-206 931,-206 931,-154 809,-154"/>
</g>
<g id="clust4" class="cluster">
<title>cluster_AppModule_imports</title>
<polygon fill="none" stroke="#000000" points="939,-154 939,-206 1407,-206 1407,-154 939,-154"/>
</g>
<g id="clust6" class="cluster">
<title>cluster_AppModule_bootstrap</title>
<polygon fill="none" stroke="#000000" points="929,-290 929,-342 1053,-342 1053,-290 929,-290"/>
</g>
<g id="clust7" class="cluster">
<title>cluster_AppModule_providers</title>
<polygon fill="none" stroke="#000000" points="482,-154 482,-206 801,-206 801,-154 482,-154"/>
</g>
<g id="clust14" class="cluster">
<title>cluster_AuthModule</title>
<polygon fill="none" stroke="#000000" stroke-dasharray="1,5" points="8,-70 8,-138 1043,-138 1043,-70 8,-70"/>
</g>
<g id="clust15" class="cluster">
<title>cluster_AuthModule_declarations</title>
<polygon fill="none" stroke="#000000" points="332,-78 332,-130 1035,-130 1035,-78 332,-78"/>
</g>
<g id="clust21" class="cluster">
<title>cluster_AuthModule_imports</title>
<polygon fill="none" stroke="#000000" points="176,-78 176,-130 324,-130 324,-78 176,-78"/>
</g>
<g id="clust22" class="cluster">
<title>cluster_AuthModule_exports</title>
<polygon fill="none" stroke="#000000" points="16,-78 16,-130 168,-130 168,-78 16,-78"/>
</g>
<g id="clust31" class="cluster">
<title>cluster_CoreModule</title>
<polygon fill="none" stroke="#000000" stroke-dasharray="1,5" points="1423,-214 1423,-282 1727,-282 1727,-214 1423,-214"/>
</g>
<g id="clust32" class="cluster">
<title>cluster_CoreModule_declarations</title>
<polygon fill="none" stroke="#000000" points="1581,-222 1581,-274 1719,-274 1719,-222 1581,-222"/>
</g>
<g id="clust35" class="cluster">
<title>cluster_CoreModule_exports</title>
<polygon fill="none" stroke="#000000" points="1431,-222 1431,-274 1573,-274 1573,-222 1431,-222"/>
</g>
<g id="clust38" class="cluster">
<title>cluster_TweetModule</title>
<polygon fill="none" stroke="#000000" stroke-dasharray="1,5" points="1051,-70 1051,-138 2163,-138 2163,-70 1051,-70"/>
</g>
<g id="clust39" class="cluster">
<title>cluster_TweetModule_declarations</title>
<polygon fill="none" stroke="#000000" points="1543,-78 1543,-130 2155,-130 2155,-78 1543,-78"/>
</g>
<g id="clust44" class="cluster">
<title>cluster_TweetModule_imports</title>
<polygon fill="none" stroke="#000000" points="1379,-78 1379,-130 1535,-130 1535,-78 1379,-78"/>
</g>
<g id="clust45" class="cluster">
<title>cluster_TweetModule_exports</title>
<polygon fill="none" stroke="#000000" points="1211,-78 1211,-130 1371,-130 1371,-78 1211,-78"/>
</g>
<g id="clust47" class="cluster">
<title>cluster_TweetModule_providers</title>
<polygon fill="none" stroke="#000000" points="1059,-78 1059,-130 1203,-130 1203,-78 1059,-78"/>
</g>
<!-- AppComponent -->
<g id="node1" class="node">
<title>AppComponent</title>
<polygon fill="#ffffb3" stroke="#000000" points="922.9399,-198 817.0601,-198 817.0601,-162 922.9399,-162 922.9399,-198"/>
<text text-anchor="middle" x="870" y="-175.8" font-family="Times,serif" font-size="14.00" fill="#000000">AppComponent</text>
</g>
<!-- AppModule -->
<g id="node2" class="node">
<title>AppModule</title>
<polygon fill="#8dd3c7" stroke="#000000" points="1032.6571,-266 1029.6571,-270 1008.6571,-270 1005.6571,-266 949.3429,-266 949.3429,-230 1032.6571,-230 1032.6571,-266"/>
<text text-anchor="middle" x="991" y="-243.8" font-family="Times,serif" font-size="14.00" fill="#000000">AppModule</text>
</g>
<!-- AppComponent&#45;&gt;AppModule -->
<g id="edge1" class="edge">
<title>AppComponent&#45;&gt;AppModule</title>
<path fill="none" stroke="#000000" d="M870,-198.0225C870,-215.3734 870,-239 870,-239 870,-239 939.0197,-239 939.0197,-239"/>
<polygon fill="#000000" stroke="#000000" points="939.0197,-242.5001 949.0197,-239 939.0196,-235.5001 939.0197,-242.5001"/>
</g>
<!-- AppComponent  -->
<g id="node7" class="node">
<title>AppComponent </title>
<polygon fill="#80b1d3" stroke="#000000" points="1045.439,-334 936.561,-334 936.561,-298 1045.439,-298 1045.439,-334"/>
<text text-anchor="middle" x="991" y="-311.8" font-family="Times,serif" font-size="14.00" fill="#000000">AppComponent </text>
</g>
<!-- AppModule&#45;&gt;AppComponent  -->
<g id="edge6" class="edge">
<title>AppModule&#45;&gt;AppComponent </title>
<path fill="none" stroke="#000000" stroke-dasharray="1,5" d="M991,-266.2228C991,-266.2228 991,-287.7269 991,-287.7269"/>
<polygon fill="#000000" stroke="#000000" points="987.5001,-287.7269 991,-297.7269 994.5001,-287.727 987.5001,-287.7269"/>
</g>
<!-- AppRoutingModule -->
<g id="node3" class="node">
<title>AppRoutingModule</title>
<polygon fill="#8dd3c7" stroke="#000000" points="1294.2744,-198 1291.2744,-202 1270.2744,-202 1267.2744,-198 1165.7256,-198 1165.7256,-162 1294.2744,-162 1294.2744,-198"/>
<text text-anchor="middle" x="1230" y="-175.8" font-family="Times,serif" font-size="14.00" fill="#000000">AppRoutingModule</text>
</g>
<!-- AppRoutingModule&#45;&gt;AppModule -->
<g id="edge2" class="edge">
<title>AppRoutingModule&#45;&gt;AppModule</title>
<path fill="none" stroke="#000000" d="M1230,-198.2228C1230,-218.3652 1230,-248 1230,-248 1230,-248 1042.9041,-248 1042.9041,-248"/>
<polygon fill="#000000" stroke="#000000" points="1042.9041,-244.5001 1032.9041,-248 1042.9041,-251.5001 1042.9041,-244.5001"/>
</g>
<!-- AuthModule -->
<g id="node4" class="node">
<title>AuthModule</title>
<polygon fill="#8dd3c7" stroke="#000000" points="1034.5482,-198 1031.5482,-202 1010.5482,-202 1007.5482,-198 947.4518,-198 947.4518,-162 1034.5482,-162 1034.5482,-198"/>
<text text-anchor="middle" x="991" y="-175.8" font-family="Times,serif" font-size="14.00" fill="#000000">AuthModule</text>
</g>
<!-- AuthModule&#45;&gt;AppModule -->
<g id="edge3" class="edge">
<title>AuthModule&#45;&gt;AppModule</title>
<path fill="none" stroke="#000000" d="M991,-198.2228C991,-198.2228 991,-219.7269 991,-219.7269"/>
<polygon fill="#000000" stroke="#000000" points="987.5001,-219.7269 991,-229.7269 994.5001,-219.727 987.5001,-219.7269"/>
</g>
<!-- AuthRoutingModule  -->
<g id="node16" class="node">
<title>AuthRoutingModule </title>
<polygon fill="#fb8072" stroke="#000000" points="160.1649,-122 23.8351,-122 23.8351,-86 160.1649,-86 160.1649,-122"/>
<text text-anchor="middle" x="92" y="-99.8" font-family="Times,serif" font-size="14.00" fill="#000000">AuthRoutingModule </text>
</g>
<!-- AuthModule&#45;&gt;AuthRoutingModule  -->
<g id="edge15" class="edge">
<title>AuthModule&#45;&gt;AuthRoutingModule </title>
<path fill="none" stroke="#000000" stroke-dasharray="5,2" d="M957.2589,-161.92C957.2589,-160.1536 957.2589,-159 957.2589,-159 957.2589,-159 92,-159 92,-159 92,-159 92,-132.0091 92,-132.0091"/>
<polygon fill="#000000" stroke="#000000" points="95.5001,-132.009 92,-122.0091 88.5001,-132.0091 95.5001,-132.009"/>
</g>
<!-- TweetModule -->
<g id="node5" class="node">
<title>TweetModule</title>
<polygon fill="#8dd3c7" stroke="#000000" points="1147.03,-198 1144.03,-202 1123.03,-202 1120.03,-198 1052.97,-198 1052.97,-162 1147.03,-162 1147.03,-198"/>
<text text-anchor="middle" x="1100" y="-175.8" font-family="Times,serif" font-size="14.00" fill="#000000">TweetModule</text>
</g>
<!-- TweetModule&#45;&gt;AppModule -->
<g id="edge4" class="edge">
<title>TweetModule&#45;&gt;AppModule</title>
<path fill="none" stroke="#000000" d="M1100,-198.0225C1100,-215.3734 1100,-239 1100,-239 1100,-239 1042.8305,-239 1042.8305,-239"/>
<polygon fill="#000000" stroke="#000000" points="1042.8305,-235.5001 1032.8305,-239 1042.8305,-242.5001 1042.8305,-235.5001"/>
</g>
<!-- TweetRoutingModule  -->
<g id="node24" class="node">
<title>TweetRoutingModule </title>
<polygon fill="#fb8072" stroke="#000000" points="1362.6467,-122 1219.3533,-122 1219.3533,-86 1362.6467,-86 1362.6467,-122"/>
<text text-anchor="middle" x="1291" y="-99.8" font-family="Times,serif" font-size="14.00" fill="#000000">TweetRoutingModule </text>
</g>
<!-- TweetModule&#45;&gt;TweetRoutingModule  -->
<g id="edge23" class="edge">
<title>TweetModule&#45;&gt;TweetRoutingModule </title>
<path fill="none" stroke="#000000" stroke-dasharray="5,2" d="M1137.2164,-161.7181C1137.2164,-146.0522 1137.2164,-126 1137.2164,-126 1137.2164,-126 1256.9069,-126 1256.9069,-126 1256.9069,-126 1256.9069,-125.6168 1256.9069,-125.6168"/>
<polygon fill="#000000" stroke="#000000" points="1260.4072,-132.1678 1256.9069,-122.1679 1253.4072,-132.168 1260.4072,-132.1678"/>
</g>
<!-- CoreModule -->
<g id="node6" class="node">
<title>CoreModule</title>
<polygon fill="#8dd3c7" stroke="#000000" points="1399.2619,-198 1396.2619,-202 1375.2619,-202 1372.2619,-198 1312.7381,-198 1312.7381,-162 1399.2619,-162 1399.2619,-198"/>
<text text-anchor="middle" x="1356" y="-175.8" font-family="Times,serif" font-size="14.00" fill="#000000">CoreModule</text>
</g>
<!-- CoreModule&#45;&gt;AppModule -->
<g id="edge5" class="edge">
<title>CoreModule&#45;&gt;AppModule</title>
<path fill="none" stroke="#000000" d="M1356,-198.2479C1356,-221.0179 1356,-257 1356,-257 1356,-257 1042.8701,-257 1042.8701,-257"/>
<polygon fill="#000000" stroke="#000000" points="1042.8702,-253.5001 1032.8701,-257 1042.8701,-260.5001 1042.8702,-253.5001"/>
</g>
<!-- HeaderComponent  -->
<g id="node18" class="node">
<title>HeaderComponent </title>
<polygon fill="#fb8072" stroke="#000000" points="1564.7436,-266 1439.2564,-266 1439.2564,-230 1564.7436,-230 1564.7436,-266"/>
<text text-anchor="middle" x="1502" y="-243.8" font-family="Times,serif" font-size="14.00" fill="#000000">HeaderComponent </text>
</g>
<!-- CoreModule&#45;&gt;HeaderComponent  -->
<g id="edge17" class="edge">
<title>CoreModule&#45;&gt;HeaderComponent </title>
<path fill="none" stroke="#000000" stroke-dasharray="5,2" d="M1399.3854,-186C1436.2055,-186 1483.1008,-186 1483.1008,-186 1483.1008,-186 1483.1008,-219.7333 1483.1008,-219.7333"/>
<polygon fill="#000000" stroke="#000000" points="1479.6009,-219.7333 1483.1008,-229.7333 1486.6009,-219.7333 1479.6009,-219.7333"/>
</g>
<!-- AuthService -->
<g id="node8" class="node">
<title>AuthService</title>
<ellipse fill="#fdb462" stroke="#000000" cx="734" cy="-180" rx="59.1083" ry="18"/>
<text text-anchor="middle" x="734" y="-175.8" font-family="Times,serif" font-size="14.00" fill="#000000">AuthService</text>
</g>
<!-- AuthService&#45;&gt;AppModule -->
<g id="edge7" class="edge">
<title>AuthService&#45;&gt;AppModule</title>
<path fill="none" stroke="#000000" d="M734,-198.2228C734,-218.3652 734,-248 734,-248 734,-248 939.1365,-248 939.1365,-248"/>
<polygon fill="#000000" stroke="#000000" points="939.1366,-251.5001 949.1365,-248 939.1365,-244.5001 939.1366,-251.5001"/>
</g>
<!-- AuthGuardService -->
<g id="node9" class="node">
<title>AuthGuardService</title>
<ellipse fill="#fdb462" stroke="#000000" cx="573" cy="-180" rx="83.3674" ry="18"/>
<text text-anchor="middle" x="573" y="-175.8" font-family="Times,serif" font-size="14.00" fill="#000000">AuthGuardService</text>
</g>
<!-- AuthGuardService&#45;&gt;AppModule -->
<g id="edge8" class="edge">
<title>AuthGuardService&#45;&gt;AppModule</title>
<path fill="none" stroke="#000000" d="M573,-198.2479C573,-221.0179 573,-257 573,-257 573,-257 939.0067,-257 939.0067,-257"/>
<polygon fill="#000000" stroke="#000000" points="939.0068,-260.5001 949.0067,-257 939.0067,-253.5001 939.0068,-260.5001"/>
</g>
<!-- WelcomeComponent -->
<g id="node10" class="node">
<title>WelcomeComponent</title>
<polygon fill="#ffffb3" stroke="#000000" points="1027.472,-122 892.528,-122 892.528,-86 1027.472,-86 1027.472,-122"/>
<text text-anchor="middle" x="960" y="-99.8" font-family="Times,serif" font-size="14.00" fill="#000000">WelcomeComponent</text>
</g>
<!-- WelcomeComponent&#45;&gt;AuthModule -->
<g id="edge9" class="edge">
<title>WelcomeComponent&#45;&gt;AuthModule</title>
<path fill="none" stroke="#000000" d="M1017.4536,-122.0109C1017.4536,-122.0109 1017.4536,-151.855 1017.4536,-151.855"/>
<polygon fill="#000000" stroke="#000000" points="1013.9537,-151.8549 1017.4536,-161.855 1020.9537,-151.855 1013.9537,-151.8549"/>
</g>
<!-- SignUpComponent -->
<g id="node11" class="node">
<title>SignUpComponent</title>
<polygon fill="#ffffb3" stroke="#000000" points="874.1123,-122 749.8877,-122 749.8877,-86 874.1123,-86 874.1123,-122"/>
<text text-anchor="middle" x="812" y="-99.8" font-family="Times,serif" font-size="14.00" fill="#000000">SignUpComponent</text>
</g>
<!-- SignUpComponent&#45;&gt;AuthModule -->
<g id="edge10" class="edge">
<title>SignUpComponent&#45;&gt;AuthModule</title>
<path fill="none" stroke="#000000" d="M845.6683,-122.1274C845.6683,-132.7109 845.6683,-144 845.6683,-144 845.6683,-144 1007.4211,-144 1007.4211,-144 1007.4211,-144 1007.4211,-151.5782 1007.4211,-151.5782"/>
<polygon fill="#000000" stroke="#000000" points="1003.9212,-151.5781 1007.4211,-161.5782 1010.9212,-151.5782 1003.9212,-151.5781"/>
</g>
<!-- SignInComponent -->
<g id="node12" class="node">
<title>SignInComponent</title>
<polygon fill="#ffffb3" stroke="#000000" points="732.1667,-122 613.8333,-122 613.8333,-86 732.1667,-86 732.1667,-122"/>
<text text-anchor="middle" x="673" y="-99.8" font-family="Times,serif" font-size="14.00" fill="#000000">SignInComponent</text>
</g>
<!-- SignInComponent&#45;&gt;AuthModule -->
<g id="edge11" class="edge">
<title>SignInComponent&#45;&gt;AuthModule</title>
<path fill="none" stroke="#000000" d="M703.5146,-122.4854C703.5146,-134.1399 703.5146,-147 703.5146,-147 703.5146,-147 997.3887,-147 997.3887,-147 997.3887,-147 997.3887,-151.9551 997.3887,-151.9551"/>
<polygon fill="#000000" stroke="#000000" points="993.8888,-151.9551 997.3887,-161.9551 1000.8888,-151.9552 993.8888,-151.9551"/>
</g>
<!-- ProjectComponent -->
<g id="node13" class="node">
<title>ProjectComponent</title>
<polygon fill="#ffffb3" stroke="#000000" points="595.486,-122 474.514,-122 474.514,-86 595.486,-86 595.486,-122"/>
<text text-anchor="middle" x="535" y="-99.8" font-family="Times,serif" font-size="14.00" fill="#000000">ProjectComponent</text>
</g>
<!-- ProjectComponent&#45;&gt;AuthModule -->
<g id="edge12" class="edge">
<title>ProjectComponent&#45;&gt;AuthModule</title>
<path fill="none" stroke="#000000" d="M542.5297,-122.1804C542.5297,-135.0382 542.5297,-150 542.5297,-150 542.5297,-150 987.3563,-150 987.3563,-150 987.3563,-150 987.3563,-151.8568 987.3563,-151.8568"/>
<polygon fill="#000000" stroke="#000000" points="983.8563,-151.8568 987.3563,-161.8568 990.8563,-151.8568 983.8563,-151.8568"/>
</g>
<!-- AboutComponent -->
<g id="node14" class="node">
<title>AboutComponent</title>
<polygon fill="#ffffb3" stroke="#000000" points="456.3301,-122 339.6699,-122 339.6699,-86 456.3301,-86 456.3301,-122"/>
<text text-anchor="middle" x="398" y="-99.8" font-family="Times,serif" font-size="14.00" fill="#000000">AboutComponent</text>
</g>
<!-- AboutComponent&#45;&gt;AuthModule -->
<g id="edge13" class="edge">
<title>AboutComponent&#45;&gt;AuthModule</title>
<path fill="none" stroke="#000000" d="M398,-122.2458C398,-136.1772 398,-153 398,-153 398,-153 977.3238,-153 977.3238,-153 977.3238,-153 977.3238,-153.8841 977.3238,-153.8841"/>
<polygon fill="#000000" stroke="#000000" points="973.8239,-151.8408 977.3238,-161.8408 980.8239,-151.8409 973.8239,-151.8408"/>
</g>
<!-- AuthRoutingModule -->
<g id="node15" class="node">
<title>AuthRoutingModule</title>
<polygon fill="#8dd3c7" stroke="#000000" points="316.1652,-122 313.1652,-126 292.1652,-126 289.1652,-122 183.8348,-122 183.8348,-86 316.1652,-86 316.1652,-122"/>
<text text-anchor="middle" x="250" y="-99.8" font-family="Times,serif" font-size="14.00" fill="#000000">AuthRoutingModule</text>
</g>
<!-- AuthRoutingModule&#45;&gt;AuthModule -->
<g id="edge14" class="edge">
<title>AuthRoutingModule&#45;&gt;AuthModule</title>
<path fill="none" stroke="#000000" d="M250,-122.1871C250,-137.1824 250,-156 250,-156 250,-156 967.2914,-156 967.2914,-156 967.2914,-156 967.2914,-156.581 967.2914,-156.581"/>
<polygon fill="#000000" stroke="#000000" points="963.7916,-151.8097 967.2914,-161.8097 970.7916,-151.8098 963.7916,-151.8097"/>
</g>
<!-- HeaderComponent -->
<g id="node17" class="node">
<title>HeaderComponent</title>
<polygon fill="#ffffb3" stroke="#000000" points="1710.7437,-266 1589.2563,-266 1589.2563,-230 1710.7437,-230 1710.7437,-266"/>
<text text-anchor="middle" x="1650" y="-243.8" font-family="Times,serif" font-size="14.00" fill="#000000">HeaderComponent</text>
</g>
<!-- HeaderComponent&#45;&gt;CoreModule -->
<g id="edge16" class="edge">
<title>HeaderComponent&#45;&gt;CoreModule</title>
<path fill="none" stroke="#000000" d="M1631.0032,-229.7079C1631.0032,-207.7943 1631.0032,-174 1631.0032,-174 1631.0032,-174 1409.2718,-174 1409.2718,-174"/>
<polygon fill="#000000" stroke="#000000" points="1409.2718,-170.5001 1399.2718,-174 1409.2717,-177.5001 1409.2718,-170.5001"/>
</g>
<!-- TweetEditComponent -->
<g id="node19" class="node">
<title>TweetEditComponent</title>
<polygon fill="#ffffb3" stroke="#000000" points="2146.6456,-122 2007.3544,-122 2007.3544,-86 2146.6456,-86 2146.6456,-122"/>
<text text-anchor="middle" x="2077" y="-99.8" font-family="Times,serif" font-size="14.00" fill="#000000">TweetEditComponent</text>
</g>
<!-- TweetEditComponent&#45;&gt;TweetModule -->
<g id="edge18" class="edge">
<title>TweetEditComponent&#45;&gt;TweetModule</title>
<path fill="none" stroke="#000000" d="M2077,-122.0664C2077,-131.4587 2077,-141 2077,-141 2077,-141 1127.1684,-141 1127.1684,-141 1127.1684,-141 1127.1684,-151.8701 1127.1684,-151.8701"/>
<polygon fill="#000000" stroke="#000000" points="1123.6685,-151.8701 1127.1684,-161.8701 1130.6685,-151.8701 1123.6685,-151.8701"/>
</g>
<!-- TweetListComponent -->
<g id="node20" class="node">
<title>TweetListComponent</title>
<polygon fill="#ffffb3" stroke="#000000" points="1989.0898,-122 1850.9102,-122 1850.9102,-86 1989.0898,-86 1989.0898,-122"/>
<text text-anchor="middle" x="1920" y="-99.8" font-family="Times,serif" font-size="14.00" fill="#000000">TweetListComponent</text>
</g>
<!-- TweetListComponent&#45;&gt;TweetModule -->
<g id="edge19" class="edge">
<title>TweetListComponent&#45;&gt;TweetModule</title>
<path fill="none" stroke="#000000" d="M1920,-122.1944C1920,-130.2782 1920,-138 1920,-138 1920,-138 1117.1203,-138 1117.1203,-138 1117.1203,-138 1117.1203,-151.9445 1117.1203,-151.9445"/>
<polygon fill="#000000" stroke="#000000" points="1113.6204,-151.9444 1117.1203,-161.9445 1120.6204,-151.9445 1113.6204,-151.9444"/>
</g>
<!-- TweetItemComponent -->
<g id="node21" class="node">
<title>TweetItemComponent</title>
<polygon fill="#ffffb3" stroke="#000000" points="1832.9678,-122 1691.0322,-122 1691.0322,-86 1832.9678,-86 1832.9678,-122"/>
<text text-anchor="middle" x="1762" y="-99.8" font-family="Times,serif" font-size="14.00" fill="#000000">TweetItemComponent</text>
</g>
<!-- TweetItemComponent&#45;&gt;TweetModule -->
<g id="edge20" class="edge">
<title>TweetItemComponent&#45;&gt;TweetModule</title>
<path fill="none" stroke="#000000" d="M1700.9439,-122.0328C1700.9439,-128.8526 1700.9439,-135 1700.9439,-135 1700.9439,-135 1107.0723,-135 1107.0723,-135 1107.0723,-135 1107.0723,-151.9561 1107.0723,-151.9561"/>
<polygon fill="#000000" stroke="#000000" points="1103.5724,-151.956 1107.0723,-161.9561 1110.5724,-151.9561 1103.5724,-151.956"/>
</g>
<!-- TweetsComponent -->
<g id="node22" class="node">
<title>TweetsComponent</title>
<polygon fill="#ffffb3" stroke="#000000" points="1672.7562,-122 1551.2438,-122 1551.2438,-86 1672.7562,-86 1672.7562,-122"/>
<text text-anchor="middle" x="1612" y="-99.8" font-family="Times,serif" font-size="14.00" fill="#000000">TweetsComponent</text>
</g>
<!-- TweetsComponent&#45;&gt;TweetModule -->
<g id="edge21" class="edge">
<title>TweetsComponent&#45;&gt;TweetModule</title>
<path fill="none" stroke="#000000" d="M1557.8719,-122.207C1557.8719,-127.5549 1557.8719,-132 1557.8719,-132 1557.8719,-132 1097.0243,-132 1097.0243,-132 1097.0243,-132 1097.0243,-151.8533 1097.0243,-151.8533"/>
<polygon fill="#000000" stroke="#000000" points="1093.5244,-151.8532 1097.0243,-161.8533 1100.5244,-151.8533 1093.5244,-151.8532"/>
</g>
<!-- TweetRoutingModule -->
<g id="node23" class="node">
<title>TweetRoutingModule</title>
<polygon fill="#8dd3c7" stroke="#000000" points="1526.647,-122 1523.647,-126 1502.647,-126 1499.647,-122 1387.353,-122 1387.353,-86 1526.647,-86 1526.647,-122"/>
<text text-anchor="middle" x="1457" y="-99.8" font-family="Times,serif" font-size="14.00" fill="#000000">TweetRoutingModule</text>
</g>
<!-- TweetRoutingModule&#45;&gt;TweetModule -->
<g id="edge22" class="edge">
<title>TweetRoutingModule&#45;&gt;TweetModule</title>
<path fill="none" stroke="#000000" d="M1393.2788,-122.1686C1393.2788,-126.0459 1393.2788,-129 1393.2788,-129 1393.2788,-129 1086.9763,-129 1086.9763,-129 1086.9763,-129 1086.9763,-151.8757 1086.9763,-151.8757"/>
<polygon fill="#000000" stroke="#000000" points="1083.4764,-151.8757 1086.9763,-161.8757 1090.4764,-151.8757 1083.4764,-151.8757"/>
</g>
<!-- TweetService -->
<g id="node25" class="node">
<title>TweetService</title>
<ellipse fill="#fdb462" stroke="#000000" cx="1131" cy="-104" rx="64.2398" ry="18"/>
<text text-anchor="middle" x="1131" y="-99.8" font-family="Times,serif" font-size="14.00" fill="#000000">TweetService</text>
</g>
<!-- TweetService&#45;&gt;TweetModule -->
<g id="edge24" class="edge">
<title>TweetService&#45;&gt;TweetModule</title>
<path fill="none" stroke="#000000" d="M1076.9283,-113.9357C1076.9283,-113.9357 1076.9283,-151.9077 1076.9283,-151.9077"/>
<polygon fill="#000000" stroke="#000000" points="1073.4284,-151.9077 1076.9283,-161.9077 1080.4284,-151.9078 1073.4284,-151.9077"/>
</g>
</g>
</svg>
